HIERARCHY
ROOT Hips
{
	OFFSET 0.000000 83.214638 0.000000
	CHANNELS 6 Xposition Yposition Zposition Xrotation Yrotation Zrotation
	JOINT Pelvis
	{
		OFFSET 0.000000 0.000000 0.000000
		CHANNELS 3 Xrotation Yrotation Zrotation
		JOINT LeftUpLeg
		{
			OFFSET 8.479700 -4.795502 -0.379100
			CHANNELS 3 Xrotation Yrotation Zrotation
			JOINT LeftLeg
			{
				OFFSET 0.024144 -32.555107 0.112900
				CHANNELS 3 Xrotation Yrotation Zrotation
				JOINT LeftFoot
				{
					OFFSET -0.024144 -32.638630 -3.012600
					CHANNELS 3 Xrotation Yrotation Zrotation
					JOINT LeftToeBase
					{
						OFFSET 0.970200 -13.225400 11.864200
						CHANNELS 3 Xrotation Yrotation Zrotation
						End Site
						{
							OFFSET 0.000000 12.319262 0.000000
						}
					}
					JOINT LFootTongue
					{
						OFFSET 1.142400 -1.059800 6.665200
						CHANNELS 3 Xrotation Yrotation Zrotation
						End Site
						{
							OFFSET 0.000000 12.319262 0.000000
						}
					}
				}
				JOINT LeftPantLeg
				{
					OFFSET 0.918482 -16.533964 -2.284700
					CHANNELS 3 Xrotation Yrotation Zrotation
					End Site
					{
						OFFSET 0.350399 24.744368 0.000000
					}
				}
			}
		}
		JOINT RightUpLeg
		{
			OFFSET -8.479700 -4.795502 -0.379100
			CHANNELS 3 Xrotation Yrotation Zrotation
			JOINT RightLeg
			{
				OFFSET -0.023144 -32.555092 0.112900
				CHANNELS 3 Xrotation Yrotation Zrotation
				JOINT RightFoot
				{
					OFFSET 0.023144 -32.638641 -3.012700
					CHANNELS 3 Xrotation Yrotation Zrotation
					JOINT RightToeBase
					{
						OFFSET -0.970200 -13.225400 11.864200
						CHANNELS 3 Xrotation Yrotation Zrotation
						End Site
						{
							OFFSET 0.000000 12.319244 0.000000
						}
					}
					JOINT RFootTongue
					{
						OFFSET -1.142200 -1.059800 6.665200
						CHANNELS 3 Xrotation Yrotation Zrotation
						End Site
						{
							OFFSET 0.000000 12.319243 0.000000
						}
					}
				}
				JOINT RightPantLeg
				{
					OFFSET -0.919482 -16.533978 -2.284800
					CHANNELS 3 Xrotation Yrotation Zrotation
					End Site
					{
						OFFSET -0.350400 24.744419 0.000000
					}
				}
			}
		}
	}
	JOINT Spine
	{
		OFFSET 0.000000 7.722000 1.166200
		CHANNELS 3 Xrotation Yrotation Zrotation
		JOINT Spine1
		{
			OFFSET 0.000000 12.024101 0.248800
			CHANNELS 3 Xrotation Yrotation Zrotation
			JOINT Spine2
			{
				OFFSET 0.000000 11.502998 -0.491200
				CHANNELS 3 Xrotation Yrotation Zrotation
				JOINT Neck
				{
					OFFSET 0.000000 18.430702 -3.123100
					CHANNELS 3 Xrotation Yrotation Zrotation
					JOINT Head
					{
						OFFSET 0.000000 9.051102 1.034000
						CHANNELS 3 Xrotation Yrotation Zrotation
						JOINT HairB
						{
							OFFSET 0.208400 24.786102 24.822300
							CHANNELS 3 Xrotation Yrotation Zrotation
							End Site
							{
								OFFSET 0.000000 32.263779 0.000000
							}
						}
						JOINT HairA
						{
							OFFSET -7.081100 24.428299 23.196600
							CHANNELS 3 Xrotation Yrotation Zrotation
							End Site
							{
								OFFSET 0.000000 32.263779 0.000000
							}
						}
						JOINT Hat
						{
							OFFSET 16.728800 15.048294 -15.439601
							CHANNELS 3 Xrotation Yrotation Zrotation
							End Site
							{
								OFFSET 0.000000 32.263779 0.000000
							}
						}
					}
				}
				JOINT LeftShoulder
				{
					OFFSET 6.197800 13.665199 -4.064700
					CHANNELS 3 Xrotation Yrotation Zrotation
					JOINT LeftArm
					{
						OFFSET 7.778100 -0.187103 -1.709300
						CHANNELS 3 Xrotation Yrotation Zrotation
						JOINT LeftForeArm
						{
							OFFSET 22.049376 0.000000 0.000000
							CHANNELS 3 Xrotation Yrotation Zrotation
							JOINT LeftHand
							{
								OFFSET 23.009392 0.000000 0.000000
								CHANNELS 3 Xrotation Yrotation Zrotation
								JOINT LeftHandThumb1
								{
									OFFSET 3.507191 -2.063065 3.133727
									CHANNELS 3 Xrotation Yrotation Zrotation
									JOINT LeftHandThumb2
									{
										OFFSET 3.101337 -1.790558 1.790558
										CHANNELS 3 Xrotation Yrotation Zrotation
										JOINT LeftHandThumb3
										{
											OFFSET 3.058640 -1.765907 1.765906
											CHANNELS 3 Xrotation Yrotation Zrotation
											End Site
											{
												OFFSET -0.415260 3.926476 -0.049563
											}
										}
									}
								}
								JOINT LeftHandIndex1
								{
									OFFSET 11.334419 -0.901459 3.706815
									CHANNELS 3 Xrotation Yrotation Zrotation
									JOINT LeftHandIndex2
									{
										OFFSET 3.283112 0.000000 0.000000
										CHANNELS 3 Xrotation Yrotation Zrotation
										JOINT LeftHandIndex3
										{
											OFFSET 3.323853 0.000000 0.000000
											CHANNELS 3 Xrotation Yrotation Zrotation
											End Site
											{
												OFFSET -1.135597 3.097809 0.402452
											}
										}
									}
								}
								JOINT LeftHandMiddle1
								{
									OFFSET 11.335861 0.000000 0.000000
									CHANNELS 3 Xrotation Yrotation Zrotation
									JOINT LeftHandMiddle2
									{
										OFFSET 3.410492 0.000000 0.000000
										CHANNELS 3 Xrotation Yrotation Zrotation
										JOINT LeftHandMiddle3
										{
											OFFSET 3.312172 0.000000 0.000000
											CHANNELS 3 Xrotation Yrotation Zrotation
											End Site
											{
												OFFSET -1.150200 3.080154 0.400270
											}
										}
									}
								}
								JOINT LeftHandRing1
								{
									OFFSET 11.514786 -0.013176 -3.003090
									CHANNELS 3 Xrotation Yrotation Zrotation
									JOINT LeftHandRing2
									{
										OFFSET 3.053307 0.000000 0.000000
										CHANNELS 3 Xrotation Yrotation Zrotation
										JOINT LeftHandRing3
										{
											OFFSET 3.295807 0.000000 0.000000
											CHANNELS 3 Xrotation Yrotation Zrotation
											End Site
											{
												OFFSET -1.281006 3.013344 0.375733
											}
										}
									}
								}
								JOINT LeftHandPinky1
								{
									OFFSET 10.518692 -0.960396 -5.730441
									CHANNELS 3 Xrotation Yrotation Zrotation
									JOINT LeftHandPinky2
									{
										OFFSET 2.861649 0.000000 0.000000
										CHANNELS 3 Xrotation Yrotation Zrotation
										JOINT LeftHandPinky3
										{
											OFFSET 2.863380 0.000000 0.000000
											CHANNELS 3 Xrotation Yrotation Zrotation
											End Site
											{
												OFFSET -0.843597 2.711159 0.369971
											}
										}
									}
								}
							}
							JOINT LSleeve
							{
								OFFSET 6.676277 -0.344902 -1.011730
								CHANNELS 3 Xrotation Yrotation Zrotation
								End Site
								{
									OFFSET 0.000000 14.885353 0.000000
								}
							}
						}
					}
				}
				JOINT RightShoulder
				{
					OFFSET -6.197800 13.665199 -4.064700
					CHANNELS 3 Xrotation Yrotation Zrotation
					JOINT RightArm
					{
						OFFSET -7.778100 -0.187103 -1.709300
						CHANNELS 3 Xrotation Yrotation Zrotation
						JOINT RightForeArm
						{
							OFFSET -22.049376 0.000000 0.000000
							CHANNELS 3 Xrotation Yrotation Zrotation
							JOINT RightHand
							{
								OFFSET -23.009392 0.000000 0.000000
								CHANNELS 3 Xrotation Yrotation Zrotation
								JOINT RightHandThumb1
								{
									OFFSET -3.507191 -2.063065 3.133727
									CHANNELS 3 Xrotation Yrotation Zrotation
									JOINT RightHandThumb2
									{
										OFFSET -3.101337 -1.790558 1.790558
										CHANNELS 3 Xrotation Yrotation Zrotation
										JOINT RightHandThumb3
										{
											OFFSET -3.058640 -1.765907 1.765906
											CHANNELS 3 Xrotation Yrotation Zrotation
											End Site
											{
												OFFSET 0.415260 3.926476 -0.049563
											}
										}
									}
								}
								JOINT RightHandIndex1
								{
									OFFSET -11.334419 -0.901459 3.706815
									CHANNELS 3 Xrotation Yrotation Zrotation
									JOINT RightHandIndex2
									{
										OFFSET -3.283112 0.000000 0.000000
										CHANNELS 3 Xrotation Yrotation Zrotation
										JOINT RightHandIndex3
										{
											OFFSET -3.323853 0.000000 0.000000
											CHANNELS 3 Xrotation Yrotation Zrotation
											End Site
											{
												OFFSET 1.135597 3.097809 0.402452
											}
										}
									}
								}
								JOINT RightHandMiddle1
								{
									OFFSET -11.335861 0.000000 0.000000
									CHANNELS 3 Xrotation Yrotation Zrotation
									JOINT RightHandMiddle2
									{
										OFFSET -3.410492 0.000000 0.000000
										CHANNELS 3 Xrotation Yrotation Zrotation
										JOINT RightHandMiddle3
										{
											OFFSET -3.312172 0.000000 0.000000
											CHANNELS 3 Xrotation Yrotation Zrotation
											End Site
											{
												OFFSET 1.150200 3.080154 0.400270
											}
										}
									}
								}
								JOINT RightHandRing1
								{
									OFFSET -11.514786 -0.013176 -3.003090
									CHANNELS 3 Xrotation Yrotation Zrotation
									JOINT RightHandRing2
									{
										OFFSET -3.053307 0.000000 0.000000
										CHANNELS 3 Xrotation Yrotation Zrotation
										JOINT RightHandRing3
										{
											OFFSET -3.295807 0.000000 0.000000
											CHANNELS 3 Xrotation Yrotation Zrotation
											End Site
											{
												OFFSET 1.281006 3.013344 0.375733
											}
										}
									}
								}
								JOINT RightHandPinky1
								{
									OFFSET -10.518692 -0.960396 -5.730441
									CHANNELS 3 Xrotation Yrotation Zrotation
									JOINT RightHandPinky2
									{
										OFFSET -2.861649 0.000000 0.000000
										CHANNELS 3 Xrotation Yrotation Zrotation
										JOINT RightHandPinky3
										{
											OFFSET -2.863380 0.000000 0.000000
											CHANNELS 3 Xrotation Yrotation Zrotation
											End Site
											{
												OFFSET 0.843597 2.711159 0.369971
											}
										}
									}
								}
							}
							JOINT RSleeve
							{
								OFFSET -6.676277 -0.344902 -1.011730
								CHANNELS 3 Xrotation Yrotation Zrotation
								End Site
								{
									OFFSET 0.000000 14.885353 0.000000
								}
							}
						}
					}
				}
				JOINT Backpack
				{
					OFFSET 0.000000 -2.471497 36.677502
					CHANNELS 3 Xrotation Yrotation Zrotation
					End Site
					{
						OFFSET 0.000000 20.427315 0.000000
					}
				}
				JOINT Hood
				{
					OFFSET 0.000000 18.754097 -10.431000
					CHANNELS 3 Xrotation Yrotation Zrotation
					JOINT Hood1
					{
						OFFSET 0.000000 -5.011002 -7.685901
						CHANNELS 3 Xrotation Yrotation Zrotation
						End Site
						{
							OFFSET 0.000000 9.175140 0.000000
						}
					}
				}
				JOINT LHoodieString
				{
					OFFSET 5.250500 16.397697 3.089900
					CHANNELS 3 Xrotation Yrotation Zrotation
					JOINT LHoodieString1
					{
						OFFSET 0.257700 -6.364304 3.694600
						CHANNELS 3 Xrotation Yrotation Zrotation
						JOINT LHoodieString2
						{
							OFFSET 0.000000 -9.643799 2.679100
							CHANNELS 3 Xrotation Yrotation Zrotation
							End Site
							{
								OFFSET 0.000000 10.009018 0.000000
							}
						}
					}
				}
				JOINT RHoodieString
				{
					OFFSET -5.250500 16.397697 3.089900
					CHANNELS 3 Xrotation Yrotation Zrotation
					JOINT RHoodieString1
					{
						OFFSET -0.257700 -6.364304 3.694600
						CHANNELS 3 Xrotation Yrotation Zrotation
						JOINT RHoodieString2
						{
							OFFSET 0.000000 -9.643799 2.679100
							CHANNELS 3 Xrotation Yrotation Zrotation
							End Site
							{
								OFFSET 0.000000 10.009018 0.000000
							}
						}
					}
				}
			}
			JOINT LBackpack_Strap
			{
				OFFSET 15.223200 -7.719803 -6.610900
				CHANNELS 3 Xrotation Yrotation Zrotation
				End Site
				{
					OFFSET 0.000000 16.040596 0.000000
				}
			}
			JOINT RBackpack_Strap
			{
				OFFSET -15.223000 -7.719803 -6.610900
				CHANNELS 3 Xrotation Yrotation Zrotation
				End Site
				{
					OFFSET 0.000000 16.040596 0.000000
				}
			}
		}
	}
	JOINT BoyFacialAnim_Joint
	{
		OFFSET 1.000000 -82.208099 -1.550900
		CHANNELS 3 Xrotation Yrotation Zrotation
		End Site
		{
			OFFSET 0.000000 30.012791 0.000000
		}
	}
}
MOTION
Frames: 4
Frame Time: 0.016667
9.871934 74.012047 57.408096 -196.529691 47.415887 185.880074 -0.000001 -0.000001 0.000000 -49.374099 -5.869937 19.248026 27.535926 -43.160689 3.449661 -0.279381 -1.232361 -18.039228 -0.000000 0.000000 0.000000 -0.000000 0.000000 0.000000 -0.000000 0.000000 -0.000001 -33.297411 -26.867005 -23.893383 46.733763 -10.208383 6.358317 -17.681541 -4.172344 15.681491 -0.000000 -0.000000 -0.000000 -0.000000 -0.000000 -0.000000 0.000000 0.000000 -0.000000 12.739036 3.715964 -3.242421 11.924108 11.118070 -15.175195 1.101641 14.665745 -10.905805 10.816982 7.709372 8.813435 -10.499622 11.214114 -3.938369 0.000000 -0.000000 -0.000000 0.000000 -0.000000 -0.000000 0.000000 -0.000000 -0.000000 0.441614 12.913608 -8.023904 24.289881 30.045152 -67.066652 -59.876655 -28.113468 -29.309537 -3.278558 20.437922 28.775563 14.303328 -13.828691 17.477167 -1.153271 11.257882 -8.413991 0.000001 0.000002 -0.000000 -1.170665 -7.739208 -1.295042 -0.043943 -0.937961 -21.136826 -0.000000 -0.000002 -0.000000 1.351893 3.178794 -22.421066 0.508250 -1.065595 -16.741328 -0.000001 -0.000001 -0.000003 1.727822 5.794771 -31.799158 -0.855266 -0.880762 -22.637687 -0.000003 0.000002 0.000002 1.357515 4.983790 -40.153159 -1.028404 -0.556632 -20.486630 0.000002 0.000002 -0.000002 -0.000001 0.000004 0.000001 1.205993 17.292712 2.836857 -64.233394 30.995480 72.958079 51.591134 12.758254 4.090932 2.838927 31.571843 -10.829797 55.149570 18.649545 -29.698277 -0.442566 -14.180523 7.313134 -0.000001 -0.000002 0.000002 5.673374 7.585029 36.844185 1.050474 3.824474 68.900244 0.000003 0.000002 0.000000 -0.125685 1.886089 45.000776 -1.169012 3.204646 68.417622 -0.000001 0.000000 -0.000002 -5.312017 1.216627 58.508835 -0.745210 1.667582 48.011302 -0.000003 0.000001 0.000002 -7.756836 -9.376455 47.264007 -0.526029 1.541544 45.600518 -0.000000 -0.000003 0.000001 -0.000000 -0.000000 0.000001 -0.000000 0.000000 0.000000 -0.000000 0.000000 0.000000 -0.000000 0.000000 0.000000 -0.000000 0.000000 0.000000 -0.000000 0.000000 -0.000000 -0.000000 -0.000000 -0.000000 -0.000000 0.000000 0.000000 -0.000000 0.000000 -0.000000 -0.000000 -0.000000 -0.000000 0.000001 -0.000001 0.000001 0.000001 -0.000001 0.000001 -0.000001 -0.000001 0.000000 
9.650572 74.117569 57.122253 -196.908862 49.680720 186.591138 -0.000001 0.000000 0.000001 -48.823941 -5.675352 19.967884 28.608702 -41.561148 3.475206 -0.995908 -0.963720 -17.526670 -0.000000 0.000000 0.000000 -0.000000 0.000000 0.000000 -0.000000 0.000000 0.000000 -33.815164 -26.517795 -24.395209 45.956866 -8.096804 6.544009 -17.034755 -3.914472 14.711454 -0.000000 -0.000001 -0.000000 -0.000000 -0.000001 -0.000000 0.000001 -0.000000 0.000001 12.601301 3.655622 -3.224593 11.663237 11.031783 -15.073983 0.830131 14.573225 -10.818433 11.049072 7.758146 8.929907 -10.080365 11.211610 -3.802284 -0.000000 0.000000 0.000000 -0.000000 0.000000 0.000000 -0.000000 0.000000 0.000000 0.560216 12.569469 -8.809949 21.591037 29.149622 -64.927198 -59.006967 -28.841720 -29.005334 -2.755785 20.006126 26.728938 15.094020 -13.012275 16.727408 -1.153500 11.258024 -8.413070 0.000001 0.000005 -0.000001 -1.291525 -7.470747 -5.110732 -0.002013 -0.823175 -18.506082 -0.000001 -0.000003 0.000001 1.303962 3.063953 -24.663262 0.471297 -1.179146 -19.128372 -0.000000 -0.000001 -0.000005 1.653458 5.671089 -34.035809 -0.906814 -0.999030 -25.024310 0.000001 -0.000001 -0.000004 1.279398 4.888706 -42.390958 -1.078334 -0.680987 -22.872767 0.000001 0.000001 0.000002 0.000001 -0.000000 0.000001 1.220476 16.569689 3.011180 -64.817881 30.099991 76.400898 53.142953 8.465484 3.719460 2.148562 35.073400 -9.633466 55.149570 18.649543 -29.698277 -0.442566 -14.180523 7.313131 0.000000 -0.000001 0.000001 5.673372 7.585026 36.844185 1.050471 3.824469 68.900244 0.000003 -0.000000 0.000005 -0.125686 1.886092 45.000783 -1.169009 3.204647 68.417622 -0.000003 -0.000001 0.000003 -5.312020 1.216630 58.508828 -0.745210 1.667582 48.011298 -0.000000 -0.000000 -0.000001 -7.756834 -9.376454 47.264014 -0.526026 1.541542 45.600518 -0.000003 0.000003 -0.000001 -0.000000 -0.000000 0.000001 0.000001 0.000000 0.000001 0.000001 0.000000 0.000001 0.000001 0.000000 0.000001 0.000001 0.000000 0.000001 0.000001 0.000000 0.000001 0.000001 0.000000 0.000001 0.000001 0.000000 0.000001 0.000001 0.000000 0.000001 0.000001 0.000000 0.000001 0.000004 -0.000003 -0.000001 0.000004 -0.000003 -0.000001 -0.000001 0.000000 0.000001 
9.399733 74.162956 56.818405 -197.467886 52.036011 187.436182 -0.000000 0.000004 0.000000 -48.411254 -5.622575 20.627622 30.032625 -39.800609 3.603320 -1.874553 -0.649382 -17.025343 0.000000 -0.000000 -0.000000 0.000000 -0.000000 -0.000000 -0.000000 -0.000000 -0.000001 -34.519315 -26.056881 -24.867165 45.368008 -6.158615 6.696041 -16.368738 -3.500686 13.870338 0.000000 -0.000001 -0.000000 0.000000 -0.000001 -0.000000 0.000001 0.000000 -0.000001 12.425918 3.569347 -3.204196 11.349577 10.896049 -14.949133 0.503249 14.434859 -10.712578 11.312816 7.850704 9.045669 -9.601182 11.292456 -3.805256 0.000001 0.000000 0.000000 0.000001 0.000000 0.000000 0.000001 0.000000 0.000000 0.690161 12.814776 -9.700470 17.839872 28.067216 -61.512028 -57.352190 -29.386896 -29.329529 -2.509862 19.581741 26.010330 15.852551 -12.226274 15.981166 -1.153661 11.258108 -8.412009 0.000001 -0.000002 0.000001 -1.364790 -7.206522 -8.793117 0.033247 -0.710947 -15.958040 0.000003 0.000003 -0.000005 1.253975 2.954635 -26.823591 0.431627 -1.287407 -21.434322 -0.000000 -0.000005 -0.000006 1.578075 5.553414 -36.190560 -0.962005 -1.110707 -27.329904 -0.000002 -0.000001 -0.000001 1.200977 4.799949 -44.547023 -1.129974 -0.799929 -25.177728 -0.000000 0.000000 -0.000000 0.000000 0.000001 0.000004 1.222240 16.439876 2.931219 -60.208281 28.479565 76.380810 52.535442 10.352257 -2.661517 -0.725319 34.527788 -2.792969 55.149570 18.649541 -29.698281 -0.442566 -14.180523 7.313134 -0.000001 0.000002 -0.000002 5.673372 7.585027 36.844185 1.050473 3.824476 68.900237 -0.000002 0.000001 0.000004 -0.125681 1.886087 45.000773 -1.169010 3.204647 68.417622 -0.000002 0.000000 -0.000002 -5.312022 1.216624 58.508828 -0.745214 1.667575 48.011298 -0.000002 -0.000001 -0.000001 -7.756834 -9.376458 47.264014 -0.526027 1.541545 45.600518 -0.000000 -0.000001 0.000002 -0.000000 0.000000 -0.000002 -0.000000 -0.000001 -0.000001 -0.000000 -0.000001 -0.000001 -0.000000 -0.000001 -0.000001 -0.000000 -0.000001 -0.000001 -0.000000 -0.000001 -0.000000 -0.000000 -0.000002 -0.000000 -0.000000 -0.000001 -0.000001 -0.000000 -0.000001 -0.000000 -0.000000 -0.000002 -0.000000 0.000001 0.000003 -0.000000 0.000001 0.000003 -0.000000 -0.000000 0.000004 0.000000 
9.175335 74.176956 56.422279 -198.323176 54.626282 188.544503 -0.000000 -0.000001 0.000000 -48.162789 -5.472086 21.468220 31.748785 -38.026050 3.510534 -2.945635 -0.329134 -16.304555 -0.000000 -0.000000 -0.000000 -0.000000 -0.000000 0.000000 -0.000000 0.000000 0.000001 -35.204735 -25.229520 -25.081674 44.766812 -4.213610 6.783607 -15.630758 -3.300898 13.154162 -0.000000 -0.000000 0.000000 -0.000000 -0.000000 0.000000 0.000001 0.000000 0.000001 12.219137 3.467021 -3.207093 10.965553 10.728927 -14.870416 0.112413 14.271534 -10.661719 11.492986 7.964791 9.125444 -9.194657 11.332436 -3.605139 -0.000001 0.000000 -0.000000 -0.000001 0.000000 -0.000000 -0.000001 0.000000 -0.000000 0.813247 12.488586 -10.557388 13.645979 26.593015 -57.689171 -53.947064 -30.883817 -28.900853 -2.216759 18.855342 25.368731 16.555682 -11.495691 15.265825 -1.153759 11.258142 -8.410817 0.000000 0.000002 0.000002 -1.394222 -6.959254 -12.216298 0.061284 -0.605629 -13.575355 -0.000001 0.000001 -0.000003 1.204409 2.854575 -28.821711 0.391337 -1.386589 -23.578626 -0.000001 -0.000001 -0.000000 1.504880 5.445188 -38.183390 -1.018055 -1.212275 -29.473994 0.000003 0.000002 -0.000000 1.125881 4.720273 -46.541186 -1.183261 -0.908401 -27.321228 -0.000001 0.000002 0.000002 -0.000002 0.000003 0.000002 1.273168 15.702841 2.792938 -54.445630 25.923128 69.909834 52.735925 24.416345 -3.568414 -2.348687 28.229717 0.359062 55.149570 18.649538 -29.698274 -0.442566 -14.180520 7.313133 0.000001 0.000001 -0.000001 5.673371 7.585026 36.844185 1.050471 3.824472 68.900237 -0.000000 -0.000001 -0.000000 -0.125683 1.886088 45.000780 -1.169008 3.204658 68.417622 0.000006 -0.000000 -0.000000 -5.312019 1.216625 58.508828 -0.745209 1.667588 48.011298 -0.000000 0.000000 0.000002 -7.756832 -9.376454 47.264014 -0.526028 1.541540 45.600511 0.000001 -0.000003 0.000001 -0.000000 -0.000001 -0.000002 0.000002 0.000001 -0.000000 0.000002 0.000001 -0.000000 0.000002 0.000001 -0.000000 0.000002 0.000001 -0.000000 0.000002 0.000001 -0.000000 0.000002 0.000000 -0.000000 0.000002 0.000001 -0.000000 0.000002 0.000001 -0.000000 0.000002 0.000000 -0.000000 0.000002 0.000002 -0.000003 0.000002 0.000002 -0.000003 -0.000000 -0.000001 0.000000 
